<svg id="visual" viewBox="0 0 450 900" width="450" height="900" xmlns="http://www.w3.org/2000/svg" xmlns:xlink="http://www.w3.org/1999/xlink" version="1.1"><rect x="0" y="0" width="450" height="900" fill="#001220"></rect><path d="M244 0L244 30C244 60 244 120 244 180C244 240 244 300 244 360C244 420 244 480 244 540C244 600 244 660 244 720C244 780 244 840 244 870L244 900L0 900L0 870C0 840 0 780 0 720C0 660 0 600 0 540C0 480 0 420 0 360C0 300 0 240 0 180C0 120 0 60 0 30L0 0Z" fill="#001829"></path><path d="M173 0L173 30C173 60 173 120 173 180C173 240 173 300 173 360C173 420 173 480 173 540C173 600 173 660 173 720C173 780 173 840 173 870L173 900L0 900L0 870C0 840 0 780 0 720C0 660 0 600 0 540C0 480 0 420 0 360C0 300 0 240 0 180C0 120 0 60 0 30L0 0Z" fill="#144765"></path><path d="M102 0L102 30C102 60 102 120 102 180C102 240 102 300 102 360C102 420 102 480 102 540C102 600 102 660 102 720C102 780 102 840 102 870L102 900L0 900L0 870C0 840 0 780 0 720C0 660 0 600 0 540C0 480 0 420 0 360C0 300 0 240 0 180C0 120 0 60 0 30L0 0Z" fill="#297ea6"></path></svg>